<svg width="825" height="504" viewBox="0 0 825 504" fill="none" xmlns="http://www.w3.org/2000/svg">
<rect width="825" height="504" fill="white"/>
<circle cx="399.5" cy="122.5" r="74.5" fill="#C4C4C4" stroke="black" stroke-width="4"/>
<path d="M381.684 102.365V115.279H378.73V102.365H374.535V99.9629H385.879V102.365H381.684ZM398.805 108.412C398.805 108.607 398.797 108.861 398.781 109.174C398.773 109.486 398.758 109.779 398.734 110.053H390.906C390.906 110.576 390.984 111.037 391.141 111.436C391.305 111.834 391.531 112.17 391.82 112.443C392.117 112.709 392.469 112.912 392.875 113.053C393.289 113.193 393.746 113.264 394.246 113.264C394.824 113.264 395.441 113.221 396.098 113.135C396.762 113.041 397.449 112.893 398.16 112.689V114.963C397.855 115.049 397.523 115.127 397.164 115.197C396.805 115.268 396.438 115.33 396.062 115.385C395.688 115.439 395.309 115.479 394.926 115.502C394.543 115.533 394.172 115.549 393.812 115.549C392.906 115.549 392.094 115.42 391.375 115.162C390.656 114.904 390.047 114.525 389.547 114.025C389.047 113.518 388.664 112.893 388.398 112.15C388.133 111.408 388 110.549 388 109.572C388 108.604 388.133 107.725 388.398 106.936C388.664 106.139 389.039 105.459 389.523 104.896C390.008 104.326 390.594 103.889 391.281 103.584C391.977 103.271 392.75 103.115 393.602 103.115C394.445 103.115 395.191 103.248 395.84 103.514C396.488 103.771 397.031 104.135 397.469 104.604C397.906 105.072 398.238 105.631 398.465 106.279C398.691 106.928 398.805 107.639 398.805 108.412ZM395.898 108.002C395.906 107.533 395.848 107.127 395.723 106.783C395.598 106.432 395.426 106.143 395.207 105.916C394.996 105.689 394.746 105.521 394.457 105.412C394.176 105.303 393.871 105.248 393.543 105.248C392.824 105.248 392.234 105.49 391.773 105.975C391.312 106.451 391.039 107.127 390.953 108.002H395.898ZM411.449 111.775C411.449 112.455 411.297 113.037 410.992 113.521C410.695 113.998 410.297 114.389 409.797 114.693C409.305 114.99 408.742 115.205 408.109 115.338C407.484 115.479 406.844 115.549 406.188 115.549C405.312 115.549 404.523 115.506 403.82 115.42C403.117 115.342 402.453 115.225 401.828 115.068V112.49C402.562 112.795 403.293 113.018 404.02 113.158C404.754 113.291 405.445 113.357 406.094 113.357C406.844 113.357 407.402 113.24 407.77 113.006C408.145 112.764 408.332 112.451 408.332 112.068C408.332 111.889 408.293 111.725 408.215 111.576C408.137 111.428 407.988 111.287 407.77 111.154C407.559 111.014 407.258 110.873 406.867 110.732C406.477 110.584 405.965 110.42 405.332 110.24C404.746 110.076 404.23 109.893 403.785 109.689C403.348 109.479 402.984 109.232 402.695 108.951C402.406 108.67 402.188 108.346 402.039 107.979C401.898 107.604 401.828 107.166 401.828 106.666C401.828 106.182 401.938 105.725 402.156 105.295C402.375 104.865 402.699 104.49 403.129 104.17C403.566 103.842 404.109 103.584 404.758 103.396C405.406 103.209 406.164 103.115 407.031 103.115C407.781 103.115 408.445 103.154 409.023 103.232C409.602 103.311 410.113 103.396 410.559 103.49V105.822C409.879 105.604 409.238 105.451 408.637 105.365C408.043 105.271 407.453 105.225 406.867 105.225C406.281 105.225 405.809 105.33 405.449 105.541C405.098 105.752 404.922 106.045 404.922 106.42C404.922 106.6 404.957 106.76 405.027 106.9C405.098 107.041 405.234 107.178 405.438 107.311C405.648 107.443 405.938 107.584 406.305 107.732C406.68 107.873 407.172 108.029 407.781 108.201C408.469 108.396 409.047 108.607 409.516 108.834C409.984 109.053 410.359 109.303 410.641 109.584C410.93 109.865 411.137 110.186 411.262 110.545C411.387 110.904 411.449 111.314 411.449 111.775ZM424.645 115.162C424.129 115.279 423.609 115.373 423.086 115.443C422.562 115.514 422.066 115.549 421.598 115.549C420.816 115.549 420.141 115.467 419.57 115.303C419.008 115.139 418.539 114.889 418.164 114.553C417.797 114.217 417.523 113.791 417.344 113.275C417.172 112.752 417.086 112.131 417.086 111.412V105.6H413.887V103.373H417.086V100.326L420.016 99.5645V103.373H424.645V105.6H420.016V111.201C420.016 111.881 420.172 112.396 420.484 112.748C420.797 113.092 421.32 113.264 422.055 113.264C422.523 113.264 422.98 113.225 423.426 113.146C423.871 113.068 424.277 112.979 424.645 112.877V115.162ZM372.988 135.428C372.988 136.615 372.84 137.693 372.543 138.662C372.254 139.631 371.797 140.459 371.172 141.146C370.555 141.826 369.762 142.354 368.793 142.729C367.824 143.096 366.664 143.279 365.312 143.279H361.422V127.963H365.957C367.129 127.963 368.152 128.111 369.027 128.408C369.91 128.697 370.645 129.146 371.23 129.756C371.816 130.365 372.254 131.139 372.543 132.076C372.84 133.014 372.988 134.131 372.988 135.428ZM369.895 135.615C369.895 134.787 369.828 134.049 369.695 133.4C369.562 132.752 369.336 132.205 369.016 131.76C368.703 131.307 368.281 130.963 367.75 130.729C367.219 130.494 366.559 130.377 365.77 130.377H364.305V140.865H365.57C366.984 140.865 368.059 140.443 368.793 139.6C369.527 138.756 369.895 137.428 369.895 135.615ZM385.961 137.232C385.961 138.17 385.828 139.029 385.562 139.811C385.297 140.584 384.914 141.248 384.414 141.803C383.914 142.357 383.301 142.787 382.574 143.092C381.848 143.396 381.02 143.549 380.09 143.549C379.207 143.549 378.418 143.42 377.723 143.162C377.027 142.904 376.438 142.521 375.953 142.014C375.469 141.498 375.098 140.857 374.84 140.092C374.582 139.318 374.453 138.42 374.453 137.396C374.453 136.451 374.586 135.592 374.852 134.818C375.125 134.045 375.512 133.385 376.012 132.838C376.52 132.291 377.137 131.869 377.863 131.572C378.59 131.268 379.41 131.115 380.324 131.115C381.215 131.115 382.008 131.248 382.703 131.514C383.398 131.771 383.988 132.158 384.473 132.674C384.957 133.189 385.324 133.83 385.574 134.596C385.832 135.354 385.961 136.232 385.961 137.232ZM382.984 137.303C382.984 136.068 382.75 135.143 382.281 134.525C381.82 133.9 381.137 133.588 380.23 133.588C379.73 133.588 379.305 133.686 378.953 133.881C378.602 134.076 378.312 134.346 378.086 134.689C377.859 135.025 377.691 135.42 377.582 135.873C377.48 136.326 377.43 136.811 377.43 137.326C377.43 138.568 377.68 139.506 378.18 140.139C378.68 140.764 379.363 141.076 380.23 141.076C380.707 141.076 381.121 140.982 381.473 140.795C381.824 140.6 382.109 140.334 382.328 139.998C382.547 139.654 382.711 139.252 382.82 138.791C382.93 138.33 382.984 137.834 382.984 137.303ZM391.27 131.373V139.131C391.27 139.779 391.391 140.271 391.633 140.607C391.875 140.936 392.242 141.1 392.734 141.1C393.211 141.1 393.668 140.904 394.105 140.514C394.551 140.115 395.02 139.58 395.512 138.908V131.373H398.371V143.279H395.898L395.828 141.521C395.578 141.826 395.324 142.104 395.066 142.354C394.809 142.604 394.527 142.818 394.223 142.998C393.926 143.17 393.598 143.303 393.238 143.396C392.887 143.498 392.496 143.549 392.066 143.549C391.457 143.549 390.922 143.451 390.461 143.256C390.008 143.053 389.629 142.768 389.324 142.4C389.02 142.033 388.789 141.596 388.633 141.088C388.484 140.572 388.41 139.998 388.41 139.365V131.373H391.27ZM412.34 137.115C412.34 138.209 412.184 139.154 411.871 139.951C411.566 140.748 411.137 141.412 410.582 141.943C410.035 142.467 409.387 142.857 408.637 143.115C407.887 143.365 407.07 143.49 406.188 143.49C405.32 143.49 404.512 143.424 403.762 143.291C403.02 143.166 402.309 142.994 401.629 142.775V126.721H404.488V130.611L404.371 132.955C404.801 132.4 405.301 131.955 405.871 131.619C406.449 131.283 407.141 131.115 407.945 131.115C408.648 131.115 409.273 131.256 409.82 131.537C410.367 131.818 410.824 132.221 411.191 132.744C411.566 133.26 411.852 133.889 412.047 134.631C412.242 135.365 412.34 136.193 412.34 137.115ZM409.34 137.232C409.34 136.576 409.293 136.018 409.199 135.557C409.105 135.096 408.969 134.717 408.789 134.42C408.617 134.123 408.402 133.908 408.145 133.775C407.895 133.635 407.605 133.564 407.277 133.564C406.793 133.564 406.328 133.76 405.883 134.15C405.445 134.541 404.98 135.072 404.488 135.744V140.947C404.715 141.033 404.992 141.104 405.32 141.158C405.656 141.213 405.996 141.24 406.34 141.24C406.793 141.24 407.203 141.146 407.57 140.959C407.945 140.771 408.262 140.506 408.52 140.162C408.785 139.818 408.988 139.4 409.129 138.908C409.27 138.408 409.34 137.85 409.34 137.232ZM418.668 128.947H415.305V126.721H421.598V141.053H425.031V143.279H414.895V141.053H418.668V128.947ZM438.391 136.412C438.391 136.607 438.383 136.861 438.367 137.174C438.359 137.486 438.344 137.779 438.32 138.053H430.492C430.492 138.576 430.57 139.037 430.727 139.436C430.891 139.834 431.117 140.17 431.406 140.443C431.703 140.709 432.055 140.912 432.461 141.053C432.875 141.193 433.332 141.264 433.832 141.264C434.41 141.264 435.027 141.221 435.684 141.135C436.348 141.041 437.035 140.893 437.746 140.689V142.963C437.441 143.049 437.109 143.127 436.75 143.197C436.391 143.268 436.023 143.33 435.648 143.385C435.273 143.439 434.895 143.479 434.512 143.502C434.129 143.533 433.758 143.549 433.398 143.549C432.492 143.549 431.68 143.42 430.961 143.162C430.242 142.904 429.633 142.525 429.133 142.025C428.633 141.518 428.25 140.893 427.984 140.15C427.719 139.408 427.586 138.549 427.586 137.572C427.586 136.604 427.719 135.725 427.984 134.936C428.25 134.139 428.625 133.459 429.109 132.896C429.594 132.326 430.18 131.889 430.867 131.584C431.562 131.271 432.336 131.115 433.188 131.115C434.031 131.115 434.777 131.248 435.426 131.514C436.074 131.771 436.617 132.135 437.055 132.604C437.492 133.072 437.824 133.631 438.051 134.279C438.277 134.928 438.391 135.639 438.391 136.412ZM435.484 136.002C435.492 135.533 435.434 135.127 435.309 134.783C435.184 134.432 435.012 134.143 434.793 133.916C434.582 133.689 434.332 133.521 434.043 133.412C433.762 133.303 433.457 133.248 433.129 133.248C432.41 133.248 431.82 133.49 431.359 133.975C430.898 134.451 430.625 135.127 430.539 136.002H435.484Z" fill="black"/>
<circle cx="267.5" cy="362.182" r="74.5" fill="#D1F562" stroke="black" stroke-width="4"/>
<circle cx="519.5" cy="367.182" r="74.5" fill="#79E877" stroke="black" stroke-width="4"/>
<path d="M251.234 355.682L250.953 347.021L250.848 343.564L250.109 345.908L248.41 351.123H246.605L245.07 345.908L244.426 343.564L244.344 346.951L244.086 355.682H241.637L242.387 340.365H245.645L246.992 344.713L247.637 347.162L248.281 344.854L249.699 340.365H253.016L253.777 355.682H251.234ZM266.656 349.635C266.656 350.572 266.523 351.432 266.258 352.213C265.992 352.986 265.609 353.65 265.109 354.205C264.609 354.76 263.996 355.189 263.27 355.494C262.543 355.799 261.715 355.951 260.785 355.951C259.902 355.951 259.113 355.822 258.418 355.564C257.723 355.307 257.133 354.924 256.648 354.416C256.164 353.9 255.793 353.26 255.535 352.494C255.277 351.721 255.148 350.822 255.148 349.799C255.148 348.854 255.281 347.994 255.547 347.221C255.82 346.447 256.207 345.787 256.707 345.24C257.215 344.693 257.832 344.271 258.559 343.975C259.285 343.67 260.105 343.518 261.02 343.518C261.91 343.518 262.703 343.65 263.398 343.916C264.094 344.174 264.684 344.561 265.168 345.076C265.652 345.592 266.02 346.232 266.27 346.998C266.527 347.756 266.656 348.635 266.656 349.635ZM263.68 349.705C263.68 348.471 263.445 347.545 262.977 346.928C262.516 346.303 261.832 345.99 260.926 345.99C260.426 345.99 260 346.088 259.648 346.283C259.297 346.479 259.008 346.748 258.781 347.092C258.555 347.428 258.387 347.822 258.277 348.275C258.176 348.729 258.125 349.213 258.125 349.729C258.125 350.971 258.375 351.908 258.875 352.541C259.375 353.166 260.059 353.479 260.926 353.479C261.402 353.479 261.816 353.385 262.168 353.197C262.52 353.002 262.805 352.736 263.023 352.4C263.242 352.057 263.406 351.654 263.516 351.193C263.625 350.732 263.68 350.236 263.68 349.705ZM278.762 355.225C278.199 355.451 277.617 355.619 277.016 355.729C276.414 355.838 275.785 355.893 275.129 355.893C274.184 355.893 273.336 355.764 272.586 355.506C271.836 355.248 271.199 354.865 270.676 354.357C270.152 353.85 269.75 353.221 269.469 352.471C269.195 351.721 269.059 350.854 269.059 349.869C269.059 348.916 269.207 348.053 269.504 347.279C269.809 346.506 270.234 345.846 270.781 345.299C271.328 344.752 271.984 344.33 272.75 344.033C273.523 343.736 274.383 343.588 275.328 343.588C276.102 343.588 276.75 343.631 277.273 343.717C277.805 343.795 278.281 343.896 278.703 344.021V346.799C278.219 346.557 277.691 346.369 277.121 346.236C276.559 346.104 276.023 346.037 275.516 346.037C274.984 346.037 274.508 346.127 274.086 346.307C273.664 346.486 273.309 346.736 273.02 347.057C272.73 347.377 272.508 347.768 272.352 348.229C272.203 348.682 272.129 349.182 272.129 349.729C272.129 350.299 272.211 350.811 272.375 351.264C272.539 351.717 272.77 352.104 273.066 352.424C273.371 352.736 273.734 352.979 274.156 353.15C274.578 353.314 275.047 353.396 275.562 353.396C275.812 353.396 276.074 353.381 276.348 353.35C276.629 353.311 276.906 353.26 277.18 353.197C277.461 353.127 277.734 353.049 278 352.963C278.273 352.877 278.527 352.783 278.762 352.682V355.225ZM289.695 355.682L285.301 349.729V355.682H282.441V339.123H285.301V348.814L289.461 343.775H293.035L288.207 349.201L293.434 355.682H289.695Z" fill="black"/>
<path d="M219.731 381.373C218.308 380.166 217.238 378.871 216.523 377.488C215.814 376.105 215.46 374.617 215.46 373.023C215.46 372.133 215.565 371.292 215.776 370.501C215.987 369.704 216.283 368.957 216.664 368.26C217.051 367.562 217.508 366.909 218.035 366.3C218.568 365.685 219.151 365.11 219.784 364.577L221.006 365.799C219.863 366.824 219.005 367.932 218.431 369.121C217.856 370.311 217.569 371.562 217.569 372.874C217.569 374.204 217.856 375.484 218.431 376.715C219.005 377.939 219.863 379.059 221.006 380.072L219.731 381.373ZM230.489 377.682V371.6C230.489 371.377 230.483 371.184 230.472 371.02C230.46 370.85 230.437 370.709 230.401 370.598C230.366 370.486 230.313 370.404 230.243 370.352C230.179 370.293 230.088 370.264 229.971 370.264C229.789 370.264 229.61 370.387 229.435 370.633C229.259 370.879 229.06 371.298 228.837 371.89V377.682H227V371.6C227 371.377 226.994 371.184 226.982 371.02C226.971 370.85 226.947 370.709 226.912 370.598C226.877 370.486 226.824 370.404 226.754 370.352C226.684 370.293 226.59 370.264 226.473 370.264C226.32 370.264 226.15 370.387 225.963 370.633C225.775 370.879 225.567 371.298 225.339 371.89V377.682H223.484V368.752H225.075L225.11 370.053C225.239 369.789 225.368 369.563 225.497 369.376C225.626 369.188 225.764 369.036 225.91 368.919C226.057 368.796 226.212 368.708 226.376 368.655C226.546 368.603 226.736 368.576 226.947 368.576C227.445 368.576 227.823 368.708 228.081 368.972C228.345 369.229 228.494 369.59 228.529 370.053C228.67 369.789 228.808 369.563 228.942 369.376C229.083 369.188 229.227 369.036 229.373 368.919C229.525 368.796 229.687 368.708 229.856 368.655C230.032 368.603 230.226 368.576 230.437 368.576C231.087 368.576 231.567 368.805 231.878 369.262C232.188 369.713 232.344 370.384 232.344 371.274V377.682H230.489ZM242.126 373.146C242.126 373.85 242.026 374.494 241.827 375.08C241.628 375.66 241.341 376.158 240.966 376.574C240.591 376.99 240.131 377.312 239.586 377.541C239.041 377.77 238.42 377.884 237.723 377.884C237.061 377.884 236.469 377.787 235.947 377.594C235.426 377.4 234.983 377.113 234.62 376.732C234.257 376.346 233.979 375.865 233.785 375.291C233.592 374.711 233.495 374.037 233.495 373.27C233.495 372.561 233.595 371.916 233.794 371.336C233.999 370.756 234.289 370.261 234.664 369.851C235.045 369.44 235.508 369.124 236.053 368.901C236.598 368.673 237.213 368.559 237.898 368.559C238.566 368.559 239.161 368.658 239.683 368.857C240.204 369.051 240.646 369.341 241.01 369.728C241.373 370.114 241.648 370.595 241.836 371.169C242.029 371.737 242.126 372.396 242.126 373.146ZM239.894 373.199C239.894 372.273 239.718 371.579 239.366 371.116C239.021 370.647 238.508 370.413 237.828 370.413C237.453 370.413 237.134 370.486 236.87 370.633C236.606 370.779 236.39 370.981 236.22 371.239C236.05 371.491 235.924 371.787 235.842 372.127C235.766 372.467 235.728 372.83 235.728 373.217C235.728 374.148 235.915 374.852 236.29 375.326C236.665 375.795 237.178 376.029 237.828 376.029C238.186 376.029 238.496 375.959 238.76 375.818C239.023 375.672 239.237 375.473 239.401 375.221C239.565 374.963 239.688 374.661 239.771 374.315C239.853 373.97 239.894 373.598 239.894 373.199ZM251.205 377.339C250.783 377.509 250.347 377.635 249.896 377.717C249.444 377.799 248.973 377.84 248.48 377.84C247.771 377.84 247.136 377.743 246.573 377.55C246.011 377.356 245.533 377.069 245.141 376.688C244.748 376.308 244.446 375.836 244.235 375.273C244.03 374.711 243.928 374.061 243.928 373.322C243.928 372.607 244.039 371.96 244.262 371.38C244.49 370.8 244.81 370.305 245.22 369.895C245.63 369.484 246.122 369.168 246.696 368.945C247.276 368.723 247.921 368.611 248.63 368.611C249.21 368.611 249.696 368.644 250.089 368.708C250.487 368.767 250.845 368.843 251.161 368.937V371.02C250.798 370.838 250.402 370.697 249.975 370.598C249.553 370.498 249.151 370.448 248.771 370.448C248.372 370.448 248.015 370.516 247.698 370.65C247.382 370.785 247.115 370.973 246.898 371.213C246.682 371.453 246.515 371.746 246.397 372.092C246.286 372.432 246.23 372.807 246.23 373.217C246.23 373.645 246.292 374.028 246.415 374.368C246.538 374.708 246.711 374.998 246.934 375.238C247.162 375.473 247.435 375.654 247.751 375.783C248.067 375.906 248.419 375.968 248.806 375.968C248.993 375.968 249.189 375.956 249.395 375.933C249.605 375.903 249.813 375.865 250.019 375.818C250.229 375.766 250.435 375.707 250.634 375.643C250.839 375.578 251.029 375.508 251.205 375.432V377.339ZM259.405 377.682L256.109 373.217V377.682H253.965V365.263H256.109V372.531L259.229 368.752H261.91L258.289 372.821L262.209 377.682H259.405ZM264.406 379.378C264.758 379.39 265.086 379.369 265.391 379.316C265.695 379.264 265.959 379.179 266.182 379.062C266.41 378.95 266.589 378.807 266.718 378.631C266.847 378.455 266.911 378.247 266.911 378.007C266.911 377.837 266.885 377.693 266.832 377.576C266.785 377.453 266.724 377.345 266.647 377.251C266.571 377.151 266.489 377.058 266.401 376.97C266.319 376.876 266.24 376.779 266.164 376.68C266.088 376.574 266.023 376.457 265.971 376.328C265.924 376.193 265.9 376.032 265.9 375.845C265.9 375.663 265.933 375.487 265.997 375.317C266.062 375.142 266.155 374.986 266.278 374.852C266.401 374.717 266.551 374.608 266.727 374.526C266.908 374.444 267.113 374.403 267.342 374.403C267.629 374.403 267.887 374.471 268.115 374.605C268.344 374.734 268.537 374.913 268.695 375.142C268.854 375.364 268.974 375.622 269.056 375.915C269.138 376.202 269.179 376.504 269.179 376.82C269.179 377.365 269.079 377.878 268.88 378.358C268.681 378.839 268.382 379.258 267.983 379.615C267.585 379.973 267.087 380.254 266.489 380.459C265.897 380.67 265.203 380.775 264.406 380.775V379.378ZM290.932 375.054C290.932 375.563 290.817 376 290.589 376.363C290.366 376.721 290.067 377.014 289.692 377.242C289.323 377.465 288.901 377.626 288.427 377.726C287.958 377.831 287.478 377.884 286.985 377.884C286.329 377.884 285.737 377.852 285.21 377.787C284.683 377.729 284.185 377.641 283.716 377.523V375.59C284.267 375.818 284.814 375.985 285.359 376.091C285.91 376.19 286.429 376.24 286.915 376.24C287.478 376.24 287.896 376.152 288.172 375.977C288.453 375.795 288.594 375.561 288.594 375.273C288.594 375.139 288.564 375.016 288.506 374.904C288.447 374.793 288.336 374.688 288.172 374.588C288.014 374.482 287.788 374.377 287.495 374.271C287.202 374.16 286.818 374.037 286.344 373.902C285.904 373.779 285.518 373.642 285.184 373.489C284.855 373.331 284.583 373.146 284.366 372.936C284.149 372.725 283.985 372.481 283.874 372.206C283.769 371.925 283.716 371.597 283.716 371.222C283.716 370.858 283.798 370.516 283.962 370.193C284.126 369.871 284.369 369.59 284.691 369.35C285.02 369.104 285.427 368.91 285.913 368.77C286.399 368.629 286.968 368.559 287.618 368.559C288.181 368.559 288.679 368.588 289.112 368.646C289.546 368.705 289.93 368.77 290.264 368.84V370.589C289.754 370.425 289.273 370.311 288.822 370.246C288.377 370.176 287.935 370.141 287.495 370.141C287.056 370.141 286.701 370.22 286.432 370.378C286.168 370.536 286.036 370.756 286.036 371.037C286.036 371.172 286.062 371.292 286.115 371.397C286.168 371.503 286.271 371.605 286.423 371.705C286.581 371.805 286.798 371.91 287.073 372.021C287.354 372.127 287.724 372.244 288.181 372.373C288.696 372.52 289.13 372.678 289.481 372.848C289.833 373.012 290.114 373.199 290.325 373.41C290.542 373.621 290.697 373.861 290.791 374.131C290.885 374.4 290.932 374.708 290.932 375.054ZM301.496 373.059C301.496 373.879 301.379 374.588 301.145 375.186C300.916 375.783 300.594 376.281 300.178 376.68C299.768 377.072 299.281 377.365 298.719 377.559C298.156 377.746 297.544 377.84 296.882 377.84C296.659 377.84 296.437 377.825 296.214 377.796C295.991 377.767 295.789 377.729 295.607 377.682V381.171H293.463V368.752H295.317L295.37 370.07C295.552 369.842 295.739 369.634 295.933 369.446C296.132 369.259 296.346 369.101 296.574 368.972C296.803 368.837 297.049 368.734 297.312 368.664C297.576 368.594 297.872 368.559 298.2 368.559C298.728 368.559 299.196 368.664 299.606 368.875C300.017 369.086 300.359 369.388 300.635 369.78C300.916 370.167 301.13 370.639 301.276 371.195C301.423 371.746 301.496 372.367 301.496 373.059ZM299.246 373.146C299.246 372.654 299.211 372.235 299.141 371.89C299.07 371.544 298.968 371.26 298.833 371.037C298.704 370.814 298.543 370.653 298.35 370.554C298.162 370.448 297.945 370.396 297.699 370.396C297.336 370.396 296.987 370.542 296.653 370.835C296.325 371.128 295.977 371.526 295.607 372.03V375.933C295.777 375.997 295.985 376.05 296.231 376.091C296.483 376.132 296.738 376.152 296.996 376.152C297.336 376.152 297.644 376.082 297.919 375.941C298.2 375.801 298.438 375.602 298.631 375.344C298.83 375.086 298.982 374.772 299.088 374.403C299.193 374.028 299.246 373.609 299.246 373.146ZM308.729 376.706C308.419 377.479 308.094 378.156 307.754 378.736C307.42 379.322 307.051 379.809 306.646 380.195C306.242 380.588 305.791 380.881 305.293 381.074C304.801 381.273 304.247 381.373 303.632 381.373C303.485 381.373 303.324 381.364 303.148 381.347C302.979 381.335 302.803 381.314 302.621 381.285V379.466C302.691 379.478 302.771 379.489 302.858 379.501C302.952 379.519 303.049 379.53 303.148 379.536C303.248 379.548 303.348 379.557 303.447 379.562C303.553 379.568 303.649 379.571 303.737 379.571C303.983 379.571 304.212 379.524 304.423 379.431C304.634 379.337 304.827 379.205 305.003 379.035C305.185 378.871 305.349 378.672 305.495 378.438C305.642 378.209 305.771 377.957 305.882 377.682L302.34 368.752H304.73L306.585 373.814L307.139 375.449L307.684 373.885L309.556 368.752H311.858L308.729 376.706ZM315.312 364.577C316.748 365.772 317.817 367.064 318.521 368.453C319.224 369.836 319.575 371.327 319.575 372.927C319.575 373.817 319.47 374.658 319.259 375.449C319.048 376.24 318.752 376.987 318.371 377.69C317.996 378.394 317.545 379.05 317.018 379.659C316.49 380.274 315.91 380.846 315.277 381.373L314.047 380.151C315.195 379.126 316.057 378.016 316.631 376.82C317.205 375.625 317.492 374.371 317.492 373.059C317.492 371.734 317.205 370.457 316.631 369.227C316.057 367.996 315.195 366.871 314.047 365.852L315.312 364.577Z" fill="black"/>
<path d="M463.887 378.373C462.463 377.166 461.394 375.871 460.679 374.488C459.97 373.105 459.615 371.617 459.615 370.023C459.615 369.133 459.721 368.292 459.932 367.501C460.143 366.704 460.438 365.957 460.819 365.26C461.206 364.562 461.663 363.909 462.19 363.3C462.724 362.685 463.307 362.11 463.939 361.577L465.161 362.799C464.019 363.824 463.16 364.932 462.586 366.121C462.012 367.311 461.725 368.562 461.725 369.874C461.725 371.204 462.012 372.484 462.586 373.715C463.16 374.939 464.019 376.059 465.161 377.072L463.887 378.373ZM475.708 372.054C475.708 372.563 475.594 373 475.365 373.363C475.143 373.721 474.844 374.014 474.469 374.242C474.1 374.465 473.678 374.626 473.203 374.726C472.734 374.831 472.254 374.884 471.762 374.884C471.105 374.884 470.514 374.852 469.986 374.787C469.459 374.729 468.961 374.641 468.492 374.523V372.59C469.043 372.818 469.591 372.985 470.136 373.091C470.687 373.19 471.205 373.24 471.691 373.24C472.254 373.24 472.673 373.152 472.948 372.977C473.229 372.795 473.37 372.561 473.37 372.273C473.37 372.139 473.341 372.016 473.282 371.904C473.224 371.793 473.112 371.688 472.948 371.588C472.79 371.482 472.564 371.377 472.271 371.271C471.979 371.16 471.595 371.037 471.12 370.902C470.681 370.779 470.294 370.642 469.96 370.489C469.632 370.331 469.359 370.146 469.143 369.936C468.926 369.725 468.762 369.481 468.65 369.206C468.545 368.925 468.492 368.597 468.492 368.222C468.492 367.858 468.574 367.516 468.738 367.193C468.902 366.871 469.146 366.59 469.468 366.35C469.796 366.104 470.203 365.91 470.689 365.77C471.176 365.629 471.744 365.559 472.395 365.559C472.957 365.559 473.455 365.588 473.889 365.646C474.322 365.705 474.706 365.77 475.04 365.84V367.589C474.53 367.425 474.05 367.311 473.599 367.246C473.153 367.176 472.711 367.141 472.271 367.141C471.832 367.141 471.478 367.22 471.208 367.378C470.944 367.536 470.812 367.756 470.812 368.037C470.812 368.172 470.839 368.292 470.892 368.397C470.944 368.503 471.047 368.605 471.199 368.705C471.357 368.805 471.574 368.91 471.85 369.021C472.131 369.127 472.5 369.244 472.957 369.373C473.473 369.52 473.906 369.678 474.258 369.848C474.609 370.012 474.891 370.199 475.102 370.41C475.318 370.621 475.474 370.861 475.567 371.131C475.661 371.4 475.708 371.708 475.708 372.054ZM485.604 374.594C485.218 374.682 484.828 374.752 484.436 374.805C484.043 374.857 483.671 374.884 483.319 374.884C482.733 374.884 482.227 374.822 481.799 374.699C481.377 374.576 481.025 374.389 480.744 374.137C480.469 373.885 480.264 373.565 480.129 373.179C480 372.786 479.936 372.32 479.936 371.781V367.422H477.536V365.752H479.936V363.467L482.133 362.896V365.752H485.604V367.422H482.133V371.623C482.133 372.133 482.25 372.52 482.484 372.783C482.719 373.041 483.111 373.17 483.662 373.17C484.014 373.17 484.356 373.141 484.69 373.082C485.024 373.023 485.329 372.956 485.604 372.88V374.594ZM490.263 365.752V371.57C490.263 372.057 490.354 372.426 490.535 372.678C490.717 372.924 490.992 373.047 491.361 373.047C491.719 373.047 492.062 372.9 492.39 372.607C492.724 372.309 493.075 371.907 493.444 371.403V365.752H495.589V374.682H493.734L493.682 373.363C493.494 373.592 493.304 373.8 493.11 373.987C492.917 374.175 492.706 374.336 492.478 374.471C492.255 374.6 492.009 374.699 491.739 374.77C491.476 374.846 491.183 374.884 490.86 374.884C490.403 374.884 490.002 374.811 489.656 374.664C489.316 374.512 489.032 374.298 488.804 374.022C488.575 373.747 488.402 373.419 488.285 373.038C488.174 372.651 488.118 372.221 488.118 371.746V365.752H490.263ZM506.065 370.059C506.065 370.879 505.948 371.588 505.714 372.186C505.485 372.783 505.163 373.281 504.747 373.68C504.337 374.072 503.851 374.365 503.288 374.559C502.726 374.746 502.113 374.84 501.451 374.84C500.801 374.84 500.194 374.79 499.632 374.69C499.075 374.597 498.542 374.468 498.032 374.304V362.263H500.177V365.181L500.089 366.938C500.411 366.522 500.786 366.188 501.214 365.937C501.647 365.685 502.166 365.559 502.77 365.559C503.297 365.559 503.766 365.664 504.176 365.875C504.586 366.086 504.929 366.388 505.204 366.78C505.485 367.167 505.699 367.639 505.846 368.195C505.992 368.746 506.065 369.367 506.065 370.059ZM503.815 370.146C503.815 369.654 503.78 369.235 503.71 368.89C503.64 368.544 503.537 368.26 503.402 368.037C503.273 367.814 503.112 367.653 502.919 367.554C502.731 367.448 502.515 367.396 502.269 367.396C501.905 367.396 501.557 367.542 501.223 367.835C500.895 368.128 500.546 368.526 500.177 369.03V372.933C500.347 372.997 500.555 373.05 500.801 373.091C501.053 373.132 501.308 373.152 501.565 373.152C501.905 373.152 502.213 373.082 502.488 372.941C502.77 372.801 503.007 372.602 503.2 372.344C503.399 372.086 503.552 371.772 503.657 371.403C503.763 371.028 503.815 370.609 503.815 370.146ZM508.562 376.378C508.913 376.39 509.241 376.369 509.546 376.316C509.851 376.264 510.114 376.179 510.337 376.062C510.565 375.95 510.744 375.807 510.873 375.631C511.002 375.455 511.066 375.247 511.066 375.007C511.066 374.837 511.04 374.693 510.987 374.576C510.94 374.453 510.879 374.345 510.803 374.251C510.727 374.151 510.645 374.058 510.557 373.97C510.475 373.876 510.396 373.779 510.319 373.68C510.243 373.574 510.179 373.457 510.126 373.328C510.079 373.193 510.056 373.032 510.056 372.845C510.056 372.663 510.088 372.487 510.152 372.317C510.217 372.142 510.311 371.986 510.434 371.852C510.557 371.717 510.706 371.608 510.882 371.526C511.063 371.444 511.269 371.403 511.497 371.403C511.784 371.403 512.042 371.471 512.271 371.605C512.499 371.734 512.692 371.913 512.851 372.142C513.009 372.364 513.129 372.622 513.211 372.915C513.293 373.202 513.334 373.504 513.334 373.82C513.334 374.365 513.234 374.878 513.035 375.358C512.836 375.839 512.537 376.258 512.139 376.615C511.74 376.973 511.242 377.254 510.645 377.459C510.053 377.67 509.358 377.775 508.562 377.775V376.378ZM533.338 374.682L533.285 373.363C533.098 373.592 532.904 373.8 532.705 373.987C532.506 374.175 532.292 374.336 532.063 374.471C531.835 374.6 531.589 374.699 531.325 374.77C531.067 374.846 530.78 374.884 530.464 374.884C529.937 374.884 529.468 374.778 529.058 374.567C528.647 374.356 528.302 374.058 528.021 373.671C527.745 373.278 527.534 372.804 527.388 372.247C527.241 371.69 527.168 371.069 527.168 370.384C527.168 369.563 527.282 368.854 527.511 368.257C527.745 367.653 528.067 367.155 528.478 366.763C528.888 366.364 529.374 366.071 529.937 365.884C530.499 365.69 531.111 365.594 531.773 365.594C531.996 365.594 532.219 365.608 532.441 365.638C532.67 365.667 532.872 365.705 533.048 365.752V362.263H535.192V374.682H533.338ZM529.418 370.287C529.418 370.779 529.45 371.201 529.515 371.553C529.585 371.898 529.685 372.183 529.813 372.405C529.948 372.628 530.112 372.792 530.306 372.897C530.499 372.997 530.719 373.047 530.965 373.047C531.328 373.047 531.674 372.9 532.002 372.607C532.33 372.314 532.679 371.913 533.048 371.403V367.501C532.878 367.437 532.667 367.384 532.415 367.343C532.169 367.302 531.92 367.281 531.668 367.281C531.322 367.281 531.012 367.352 530.736 367.492C530.461 367.633 530.224 367.832 530.024 368.09C529.831 368.348 529.682 368.664 529.576 369.039C529.471 369.408 529.418 369.824 529.418 370.287ZM539.745 365.752V371.57C539.745 372.057 539.836 372.426 540.018 372.678C540.199 372.924 540.475 373.047 540.844 373.047C541.201 373.047 541.544 372.9 541.872 372.607C542.206 372.309 542.558 371.907 542.927 371.403V365.752H545.071V374.682H543.217L543.164 373.363C542.977 373.592 542.786 373.8 542.593 373.987C542.399 374.175 542.188 374.336 541.96 374.471C541.737 374.6 541.491 374.699 541.222 374.77C540.958 374.846 540.665 374.884 540.343 374.884C539.886 374.884 539.484 374.811 539.139 374.664C538.799 374.512 538.515 374.298 538.286 374.022C538.058 373.747 537.885 373.419 537.768 373.038C537.656 372.651 537.601 372.221 537.601 371.746V365.752H539.745ZM553.816 374.682V368.6C553.816 368.377 553.811 368.184 553.799 368.02C553.787 367.85 553.764 367.709 553.729 367.598C553.693 367.486 553.641 367.404 553.57 367.352C553.506 367.293 553.415 367.264 553.298 367.264C553.116 367.264 552.938 367.387 552.762 367.633C552.586 367.879 552.387 368.298 552.164 368.89V374.682H550.327V368.6C550.327 368.377 550.321 368.184 550.31 368.02C550.298 367.85 550.274 367.709 550.239 367.598C550.204 367.486 550.151 367.404 550.081 367.352C550.011 367.293 549.917 367.264 549.8 367.264C549.647 367.264 549.478 367.387 549.29 367.633C549.103 367.879 548.895 368.298 548.666 368.89V374.682H546.812V365.752H548.402L548.438 367.053C548.566 366.789 548.695 366.563 548.824 366.376C548.953 366.188 549.091 366.036 549.237 365.919C549.384 365.796 549.539 365.708 549.703 365.655C549.873 365.603 550.063 365.576 550.274 365.576C550.772 365.576 551.15 365.708 551.408 365.972C551.672 366.229 551.821 366.59 551.856 367.053C551.997 366.789 552.135 366.563 552.27 366.376C552.41 366.188 552.554 366.036 552.7 365.919C552.853 365.796 553.014 365.708 553.184 365.655C553.359 365.603 553.553 365.576 553.764 365.576C554.414 365.576 554.895 365.805 555.205 366.262C555.516 366.713 555.671 367.384 555.671 368.274V374.682H553.816ZM563.713 374.682V368.6C563.713 368.377 563.707 368.184 563.695 368.02C563.684 367.85 563.66 367.709 563.625 367.598C563.59 367.486 563.537 367.404 563.467 367.352C563.402 367.293 563.312 367.264 563.194 367.264C563.013 367.264 562.834 367.387 562.658 367.633C562.482 367.879 562.283 368.298 562.061 368.89V374.682H560.224V368.6C560.224 368.377 560.218 368.184 560.206 368.02C560.194 367.85 560.171 367.709 560.136 367.598C560.101 367.486 560.048 367.404 559.978 367.352C559.907 367.293 559.813 367.264 559.696 367.264C559.544 367.264 559.374 367.387 559.187 367.633C558.999 367.879 558.791 368.298 558.562 368.89V374.682H556.708V365.752H558.299L558.334 367.053C558.463 366.789 558.592 366.563 558.721 366.376C558.85 366.188 558.987 366.036 559.134 365.919C559.28 365.796 559.436 365.708 559.6 365.655C559.77 365.603 559.96 365.576 560.171 365.576C560.669 365.576 561.047 365.708 561.305 365.972C561.568 366.229 561.718 366.59 561.753 367.053C561.894 366.789 562.031 366.563 562.166 366.376C562.307 366.188 562.45 366.036 562.597 365.919C562.749 365.796 562.91 365.708 563.08 365.655C563.256 365.603 563.449 365.576 563.66 365.576C564.311 365.576 564.791 365.805 565.102 366.262C565.412 366.713 565.567 367.384 565.567 368.274V374.682H563.713ZM572.678 373.706C572.367 374.479 572.042 375.156 571.702 375.736C571.368 376.322 570.999 376.809 570.595 377.195C570.19 377.588 569.739 377.881 569.241 378.074C568.749 378.273 568.195 378.373 567.58 378.373C567.434 378.373 567.272 378.364 567.097 378.347C566.927 378.335 566.751 378.314 566.569 378.285V376.466C566.64 376.478 566.719 376.489 566.807 376.501C566.9 376.519 566.997 376.53 567.097 376.536C567.196 376.548 567.296 376.557 567.396 376.562C567.501 376.568 567.598 376.571 567.686 376.571C567.932 376.571 568.16 376.524 568.371 376.431C568.582 376.337 568.775 376.205 568.951 376.035C569.133 375.871 569.297 375.672 569.443 375.438C569.59 375.209 569.719 374.957 569.83 374.682L566.288 365.752H568.679L570.533 370.814L571.087 372.449L571.632 370.885L573.504 365.752H575.807L572.678 373.706ZM577.837 376.378C578.188 376.39 578.517 376.369 578.821 376.316C579.126 376.264 579.39 376.179 579.612 376.062C579.841 375.95 580.02 375.807 580.148 375.631C580.277 375.455 580.342 375.247 580.342 375.007C580.342 374.837 580.315 374.693 580.263 374.576C580.216 374.453 580.154 374.345 580.078 374.251C580.002 374.151 579.92 374.058 579.832 373.97C579.75 373.876 579.671 373.779 579.595 373.68C579.519 373.574 579.454 373.457 579.401 373.328C579.354 373.193 579.331 373.032 579.331 372.845C579.331 372.663 579.363 372.487 579.428 372.317C579.492 372.142 579.586 371.986 579.709 371.852C579.832 371.717 579.981 371.608 580.157 371.526C580.339 371.444 580.544 371.403 580.772 371.403C581.06 371.403 581.317 371.471 581.546 371.605C581.774 371.734 581.968 371.913 582.126 372.142C582.284 372.364 582.404 372.622 582.486 372.915C582.568 373.202 582.609 373.504 582.609 373.82C582.609 374.365 582.51 374.878 582.311 375.358C582.111 375.839 581.812 376.258 581.414 376.615C581.016 376.973 580.518 377.254 579.92 377.459C579.328 377.67 578.634 377.775 577.837 377.775V376.378ZM510.996 385.082C510.738 385 510.431 384.933 510.073 384.88C509.722 384.821 509.361 384.792 508.992 384.792C508.74 384.792 508.506 384.827 508.289 384.897C508.072 384.962 507.885 385.067 507.727 385.214C507.568 385.36 507.442 385.548 507.349 385.776C507.261 385.999 507.217 386.271 507.217 386.594V388.035H510.724V389.705H507.217V395.682H505.055V389.705H502.462V388.035H505.055V386.682C505.055 386.049 505.146 385.507 505.327 385.056C505.515 384.599 505.775 384.227 506.109 383.939C506.449 383.646 506.856 383.433 507.331 383.298C507.806 383.163 508.336 383.096 508.922 383.096C509.309 383.096 509.675 383.122 510.021 383.175C510.372 383.222 510.697 383.28 510.996 383.351V385.082ZM518.476 395.682L518.423 394.513C518.235 394.712 518.039 394.896 517.834 395.066C517.629 395.23 517.403 395.374 517.157 395.497C516.911 395.62 516.642 395.714 516.349 395.778C516.062 395.849 515.745 395.884 515.399 395.884C514.942 395.884 514.541 395.816 514.195 395.682C513.85 395.547 513.56 395.359 513.325 395.119C513.091 394.879 512.912 394.589 512.789 394.249C512.672 393.909 512.613 393.534 512.613 393.124C512.613 392.702 512.701 392.312 512.877 391.955C513.059 391.598 513.331 391.29 513.694 391.032C514.063 390.774 514.521 390.572 515.065 390.426C515.616 390.279 516.261 390.206 516.999 390.206H518.168V389.67C518.168 389.441 518.136 389.236 518.071 389.055C518.007 388.867 517.901 388.709 517.755 388.58C517.614 388.451 517.43 388.352 517.201 388.281C516.973 388.211 516.691 388.176 516.357 388.176C515.83 388.176 515.309 388.237 514.793 388.36C514.283 388.478 513.788 388.645 513.308 388.861V387.147C513.735 386.978 514.228 386.837 514.784 386.726C515.347 386.614 515.93 386.559 516.533 386.559C517.195 386.559 517.764 386.623 518.238 386.752C518.713 386.875 519.103 387.062 519.407 387.314C519.718 387.566 519.946 387.883 520.093 388.264C520.239 388.639 520.312 389.078 520.312 389.582V395.682H518.476ZM518.168 391.735H516.858C516.495 391.735 516.188 391.771 515.936 391.841C515.684 391.911 515.479 392.008 515.32 392.131C515.162 392.254 515.045 392.397 514.969 392.562C514.898 392.72 514.863 392.89 514.863 393.071C514.863 393.435 514.98 393.713 515.215 393.906C515.449 394.094 515.769 394.188 516.173 394.188C516.472 394.188 516.782 394.079 517.104 393.862C517.427 393.646 517.781 393.335 518.168 392.931V391.735ZM528.302 395.682L525.006 391.217V395.682H522.861V383.263H525.006V390.531L528.126 386.752H530.807L527.186 390.821L531.105 395.682H528.302ZM540.448 390.531C540.448 390.678 540.442 390.868 540.431 391.103C540.425 391.337 540.413 391.557 540.396 391.762H534.524C534.524 392.154 534.583 392.5 534.7 392.799C534.823 393.098 534.993 393.35 535.21 393.555C535.433 393.754 535.696 393.906 536.001 394.012C536.312 394.117 536.654 394.17 537.029 394.17C537.463 394.17 537.926 394.138 538.418 394.073C538.916 394.003 539.432 393.892 539.965 393.739V395.444C539.736 395.509 539.487 395.567 539.218 395.62C538.948 395.673 538.673 395.72 538.392 395.761C538.11 395.802 537.826 395.831 537.539 395.849C537.252 395.872 536.974 395.884 536.704 395.884C536.024 395.884 535.415 395.787 534.876 395.594C534.337 395.4 533.88 395.116 533.505 394.741C533.13 394.36 532.843 393.892 532.644 393.335C532.444 392.778 532.345 392.134 532.345 391.401C532.345 390.675 532.444 390.016 532.644 389.424C532.843 388.826 533.124 388.316 533.487 387.895C533.851 387.467 534.29 387.139 534.806 386.91C535.327 386.676 535.907 386.559 536.546 386.559C537.179 386.559 537.738 386.658 538.225 386.857C538.711 387.051 539.118 387.323 539.446 387.675C539.774 388.026 540.023 388.445 540.193 388.932C540.363 389.418 540.448 389.951 540.448 390.531ZM538.269 390.224C538.274 389.872 538.23 389.567 538.137 389.31C538.043 389.046 537.914 388.829 537.75 388.659C537.592 388.489 537.404 388.363 537.188 388.281C536.977 388.199 536.748 388.158 536.502 388.158C535.963 388.158 535.521 388.34 535.175 388.703C534.829 389.061 534.624 389.567 534.56 390.224H538.269ZM544.623 382.577C546.059 383.772 547.128 385.064 547.831 386.453C548.534 387.836 548.886 389.327 548.886 390.927C548.886 391.817 548.78 392.658 548.569 393.449C548.358 394.24 548.062 394.987 547.682 395.69C547.307 396.394 546.855 397.05 546.328 397.659C545.801 398.274 545.221 398.846 544.588 399.373L543.357 398.151C544.506 397.126 545.367 396.016 545.941 394.82C546.516 393.625 546.803 392.371 546.803 391.059C546.803 389.734 546.516 388.457 545.941 387.227C545.367 385.996 544.506 384.871 543.357 383.852L544.623 382.577Z" fill="black"/>
<path d="M508.062 349.053C508.062 349.889 507.906 350.615 507.594 351.232C507.289 351.85 506.859 352.361 506.305 352.768C505.75 353.166 505.09 353.463 504.324 353.658C503.559 353.854 502.723 353.951 501.816 353.951C501.012 353.951 500.234 353.904 499.484 353.811C498.734 353.717 497.992 353.561 497.258 353.342V350.494C497.617 350.619 497.992 350.736 498.383 350.846C498.773 350.955 499.164 351.053 499.555 351.139C499.953 351.217 500.348 351.279 500.738 351.326C501.129 351.373 501.508 351.396 501.875 351.396C502.422 351.396 502.887 351.35 503.27 351.256C503.652 351.162 503.965 351.033 504.207 350.869C504.449 350.705 504.625 350.51 504.734 350.283C504.844 350.057 504.898 349.807 504.898 349.533C504.898 349.158 504.789 348.846 504.57 348.596C504.359 348.338 504.078 348.111 503.727 347.916C503.375 347.721 502.973 347.545 502.52 347.389C502.074 347.232 501.617 347.064 501.148 346.885C500.688 346.705 500.23 346.502 499.777 346.275C499.332 346.049 498.934 345.768 498.582 345.432C498.23 345.096 497.945 344.697 497.727 344.236C497.516 343.768 497.41 343.205 497.41 342.549C497.41 341.947 497.52 341.377 497.738 340.838C497.957 340.299 498.301 339.83 498.77 339.432C499.238 339.025 499.84 338.705 500.574 338.471C501.309 338.229 502.195 338.107 503.234 338.107C503.539 338.107 503.855 338.123 504.184 338.154C504.52 338.178 504.848 338.213 505.168 338.26C505.496 338.299 505.809 338.35 506.105 338.412C506.41 338.467 506.688 338.525 506.938 338.588V341.225C506.688 341.131 506.414 341.045 506.117 340.967C505.82 340.889 505.512 340.822 505.191 340.768C504.879 340.705 504.562 340.658 504.242 340.627C503.922 340.596 503.617 340.58 503.328 340.58C502.82 340.58 502.391 340.623 502.039 340.709C501.688 340.787 501.398 340.9 501.172 341.049C500.945 341.189 500.781 341.365 500.68 341.576C500.578 341.787 500.527 342.021 500.527 342.279C500.527 342.6 500.633 342.877 500.844 343.111C501.062 343.338 501.348 343.545 501.699 343.732C502.059 343.912 502.461 344.084 502.906 344.248C503.359 344.404 503.82 344.576 504.289 344.764C504.766 344.943 505.227 345.15 505.672 345.385C506.125 345.619 506.527 345.904 506.879 346.24C507.238 346.576 507.523 346.975 507.734 347.436C507.953 347.889 508.062 348.428 508.062 349.053ZM520.754 353.564C520.238 353.682 519.719 353.775 519.195 353.846C518.672 353.916 518.176 353.951 517.707 353.951C516.926 353.951 516.25 353.869 515.68 353.705C515.117 353.541 514.648 353.291 514.273 352.955C513.906 352.619 513.633 352.193 513.453 351.678C513.281 351.154 513.195 350.533 513.195 349.814V344.002H509.996V341.775H513.195V338.729L516.125 337.967V341.775H520.754V344.002H516.125V349.604C516.125 350.283 516.281 350.799 516.594 351.15C516.906 351.494 517.43 351.666 518.164 351.666C518.633 351.666 519.09 351.627 519.535 351.549C519.98 351.471 520.387 351.381 520.754 351.279V353.564ZM526.965 341.775V349.533C526.965 350.182 527.086 350.674 527.328 351.01C527.57 351.338 527.938 351.502 528.43 351.502C528.906 351.502 529.363 351.307 529.801 350.916C530.246 350.518 530.715 349.982 531.207 349.311V341.775H534.066V353.682H531.594L531.523 351.924C531.273 352.229 531.02 352.506 530.762 352.756C530.504 353.006 530.223 353.221 529.918 353.4C529.621 353.572 529.293 353.705 528.934 353.799C528.582 353.9 528.191 353.951 527.762 353.951C527.152 353.951 526.617 353.854 526.156 353.658C525.703 353.455 525.324 353.17 525.02 352.803C524.715 352.436 524.484 351.998 524.328 351.49C524.18 350.975 524.105 350.4 524.105 349.768V341.775H526.965ZM548.035 347.518C548.035 348.611 547.879 349.557 547.566 350.354C547.262 351.15 546.832 351.814 546.277 352.346C545.73 352.869 545.082 353.26 544.332 353.518C543.582 353.768 542.766 353.893 541.883 353.893C541.016 353.893 540.207 353.826 539.457 353.693C538.715 353.568 538.004 353.396 537.324 353.178V337.123H540.184V341.014L540.066 343.357C540.496 342.803 540.996 342.357 541.566 342.021C542.145 341.686 542.836 341.518 543.641 341.518C544.344 341.518 544.969 341.658 545.516 341.939C546.062 342.221 546.52 342.623 546.887 343.146C547.262 343.662 547.547 344.291 547.742 345.033C547.938 345.768 548.035 346.596 548.035 347.518ZM545.035 347.635C545.035 346.979 544.988 346.42 544.895 345.959C544.801 345.498 544.664 345.119 544.484 344.822C544.312 344.525 544.098 344.311 543.84 344.178C543.59 344.037 543.301 343.967 542.973 343.967C542.488 343.967 542.023 344.162 541.578 344.553C541.141 344.943 540.676 345.475 540.184 346.146V351.35C540.41 351.436 540.688 351.506 541.016 351.561C541.352 351.615 541.691 351.643 542.035 351.643C542.488 351.643 542.898 351.549 543.266 351.361C543.641 351.174 543.957 350.908 544.215 350.564C544.48 350.221 544.684 349.803 544.824 349.311C544.965 348.811 545.035 348.252 545.035 347.635Z" fill="black"/>
<path d="M355.428 218.221C355.173 217.433 354.328 217 353.539 217.254L340.691 221.399C339.903 221.653 339.47 222.498 339.724 223.287C339.979 224.075 340.824 224.508 341.612 224.254L353.033 220.57L356.717 231.99C356.971 232.779 357.817 233.212 358.605 232.957C359.393 232.703 359.826 231.858 359.572 231.069L355.428 218.221ZM313.335 301.365L355.335 219.365L352.665 217.998L310.665 299.998L313.335 301.365Z" fill="black"/>
<path d="M448.437 224.247C447.644 224.005 446.806 224.452 446.565 225.245L442.634 238.16C442.393 238.953 442.84 239.791 443.633 240.032C444.425 240.273 445.263 239.826 445.504 239.033L448.998 227.553L460.478 231.047C461.271 231.289 462.109 230.842 462.35 230.049C462.591 229.257 462.144 228.419 461.352 228.177L448.437 224.247ZM489.324 299.976L449.324 224.976L446.676 226.388L486.676 301.388L489.324 299.976Z" fill="black"/>
<path d="M334.185 225.928L356.924 211.656L357.914 238.485L334.185 225.928Z" fill="#FFFB54" stroke="black" stroke-width="4"/>
<path d="M440.193 240.224L441.086 213.393L463.877 227.582L440.193 240.224Z" fill="#FFFB54" stroke="black" stroke-width="4"/>
</svg>
